<?xml version="1.0" standalone="no"?>
<!DOCTYPE svg PUBLIC "-//W3C//DTD SVG 20010904//EN"
 "http://www.w3.org/TR/2001/REC-SVG-20010904/DTD/svg10.dtd">
<svg version="1.0" xmlns="http://www.w3.org/2000/svg"
 width="363.000000pt" height="59.000000pt" viewBox="0 0 363.000000 59.000000"
 preserveAspectRatio="xMidYMid meet">
<metadata>
Created by potrace 1.15, written by Peter Selinger 2001-2017
</metadata>
<g transform="translate(0.000000,59.000000) scale(0.100000,-0.100000)"
fill="#000000" stroke="none">
<path d="M1040 469 c-32 -13 -78 -56 -96 -91 -8 -15 -14 -48 -14 -73 0 -101
79 -175 187 -175 55 0 107 23 132 59 24 34 35 71 22 71 -6 0 -11 -7 -11 -15 0
-25 -60 -84 -97 -94 -47 -13 -86 -4 -115 26 -21 22 -23 34 -23 128 0 96 2 105
24 129 37 39 90 36 139 -9 21 -19 47 -52 57 -75 10 -22 21 -40 24 -40 3 0 5
36 3 80 -2 44 -6 80 -9 80 -4 0 -14 -7 -24 -16 -17 -15 -21 -15 -62 5 -46 22
-96 26 -137 10z"/>
<path d="M1920 333 c-53 -121 -71 -151 -99 -170 l-34 -23 71 0 71 0 -24 25
c-22 21 -24 27 -13 50 10 23 16 25 75 25 l64 0 15 -36 c17 -40 12 -50 -26 -57
-14 -2 22 -5 80 -5 94 -1 102 0 75 12 -26 11 -40 35 -101 166 -39 85 -75 155
-80 157 -5 1 -38 -64 -74 -144z"/>
<path d="M2850 468 c-46 -13 -96 -52 -115 -88 -8 -16 -15 -53 -15 -82 0 -68
32 -117 95 -148 40 -19 55 -21 113 -15 37 4 88 7 115 7 l47 1 0 51 c0 58 5 67
40 83 20 10 3 12 -95 11 -84 0 -110 -2 -85 -8 81 -19 82 -108 0 -130 -55 -15
-106 7 -125 54 -21 49 -19 153 3 196 46 92 164 69 225 -44 l22 -41 3 74 c2 40
0 76 -2 79 -3 3 -14 -2 -24 -11 -17 -16 -22 -15 -75 3 -62 22 -76 23 -127 8z"/>
<path d="M60 452 l35 -17 3 -124 c3 -133 -4 -155 -52 -164 -11 -2 63 -5 167
-6 l187 -1 0 70 c0 39 -3 70 -8 70 -4 0 -16 -19 -27 -42 -27 -57 -62 -80 -130
-86 l-55 -4 0 71 c0 64 2 71 20 71 25 0 57 -35 65 -71 14 -61 25 -24 25 81 0
106 -11 143 -23 80 -8 -36 -40 -70 -67 -70 -18 0 -20 7 -20 76 l0 77 56 -6
c69 -7 102 -28 123 -78 9 -21 19 -39 24 -39 4 0 7 29 7 65 l0 65 -182 0 c-181
0 -183 0 -148 -18z"/>
<path d="M465 451 c37 -17 155 -140 155 -162 0 -20 -94 -102 -143 -124 l-52
-24 105 1 c58 0 96 3 85 5 -54 14 -57 40 -10 91 l34 37 40 -45 c47 -52 48 -72
6 -81 -17 -4 24 -7 89 -8 l119 -1 -40 22 c-23 13 -69 55 -102 94 l-61 72 61
56 c34 31 74 60 90 63 63 12 36 23 -58 23 l-98 0 33 -20 c37 -23 35 -36 -13
-80 l-27 -25 -34 39 c-40 46 -42 59 -11 74 17 8 -3 11 -93 11 l-115 0 40 -18z"/>
<path d="M1344 455 c40 -17 44 -33 45 -145 1 -120 -4 -139 -43 -156 -28 -12
-22 -13 79 -13 101 0 107 1 79 13 -34 15 -44 38 -44 104 l0 42 85 0 85 0 0
-57 c0 -66 -6 -78 -40 -92 -19 -7 3 -10 85 -9 85 0 103 2 78 9 -41 12 -45 25
-41 169 l3 115 35 17 35 18 -110 0 -110 0 33 -20 c30 -18 32 -23 32 -75 l0
-55 -85 0 -85 0 1 43 c1 58 10 77 45 92 26 12 18 13 -81 13 -99 0 -107 -1 -81
-13z"/>
<path d="M2243 456 c16 -7 33 -19 38 -27 12 -19 11 -216 -1 -239 -6 -11 -23
-26 -38 -34 -25 -14 -22 -15 63 -15 89 0 90 0 55 15 -19 8 -38 20 -42 27 -4 7
-8 61 -8 122 l0 110 136 -143 c75 -78 140 -142 145 -142 4 0 10 66 11 147 l3
147 34 23 34 23 -87 0 c-47 0 -86 -2 -86 -6 0 -3 13 -10 29 -15 38 -14 51 -47
51 -132 l-1 -72 -108 113 -108 112 -74 -1 c-68 -1 -72 -2 -46 -13z"/>
<path d="M3194 455 c40 -17 44 -33 45 -145 1 -120 -4 -139 -43 -156 -28 -12
-11 -13 152 -14 l182 0 0 70 c0 39 -2 70 -5 70 -3 0 -12 -18 -21 -40 -22 -55
-62 -81 -134 -87 l-60 -6 0 72 c0 65 2 71 20 71 27 0 70 -43 70 -69 0 -11 5
-23 10 -26 6 -4 10 34 9 107 -1 110 -1 112 -16 78 -21 -49 -42 -70 -70 -70
-22 0 -23 3 -23 76 l0 77 59 -6 c77 -7 99 -20 122 -73 11 -24 22 -44 24 -44 3
0 5 29 5 65 l0 65 -177 -1 c-155 -1 -174 -2 -149 -14z"/>
</g>
</svg>
